<svg width="168" height="168" viewBox="0 0 168 168" fill="none" xmlns="http://www.w3.org/2000/svg">
<path d="M120.389 168H7.38025C3.30432 168 0 164.696 0 160.62V7.38025C0 3.30432 3.30432 0 7.38025 0H96.8981L127.768 29.3518V160.62C127.769 164.696 124.464 168 120.389 168Z" fill="#F4F4F4"/>
<path d="M96.8981 0H83.6257L114.495 29.3518V160.62C114.495 164.696 111.192 168 107.115 168H120.387C124.463 168 127.768 164.696 127.768 160.62V29.3518L96.8981 0Z" fill="#E8E8E8"/>
<path d="M114.495 16.7318L96.8981 0H7.38025C3.30432 0 0 3.30432 0 7.38025V16.7318H114.495Z" fill="#010002"/>
<path d="M87.2082 16.7318H114.495L96.8981 0H87.2082V16.7318Z" fill="#010002"/>
<path d="M96.8981 0V21.9716C96.8981 26.0475 100.202 29.3518 104.278 29.3518H127.769L96.8981 0Z" fill="#DEDCDD"/>
<path d="M0 121.251V160.62C0 164.696 3.30432 168 7.38025 168H120.389C124.464 168 127.769 164.696 127.769 160.62V121.251H0Z" fill="#010002"/>
<path d="M114.495 160.62C114.495 164.696 111.192 168 107.115 168H120.387C124.458 168 127.768 164.702 127.768 160.62V121.251H114.495V160.62Z" fill="#010002"/>
<path d="M52.5474 156.198C57.2911 156.198 61.1364 152.427 61.1364 147.773V135.418C61.1364 134.304 60.234 133.402 59.1215 133.402C58.0089 133.402 57.1066 134.304 57.1066 135.418V147.773C57.1066 152.972 49.6802 154.153 48.187 149.003C47.9447 148.166 47.1744 147.555 46.2592 147.555C44.9134 147.555 43.9534 148.864 44.3366 150.148C45.3966 153.702 48.6843 156.198 52.5474 156.198Z" fill="#151616"/>
<path d="M74.5536 152.332C72.3464 152.332 70.179 151.514 68.2603 150.54C66.9631 149.879 65.4276 150.827 65.4276 152.279C65.4276 153.011 65.8326 153.651 66.4299 153.985C73.9563 158.161 83.5065 156.19 83.5065 149.458C83.5065 144.47 78.6167 143.446 74.4203 142.686C71.6415 142.182 69.7625 141.926 69.7535 140.095C69.7471 138.556 71.0839 136.937 74.4536 136.937C78.3475 136.937 80.1304 138.834 81.343 138.834C83.3463 138.834 84.0372 136.133 82.2556 135.184C73.3193 130.418 65.7327 134.375 65.7237 140.263C65.7147 145.626 70.9852 146.419 74.4203 146.981C77.5939 147.499 79.4755 147.839 79.4896 149.588C79.5114 151.903 76.1391 152.332 74.5536 152.332Z" fill="#151616"/>
</svg>
